<svg xmlns="http://www.w3.org/2000/svg"  viewBox="0 0 96 96" width="96px" height="96px" baseProfile="basic"><path fill="#0fd2ff" d="M50.574,86.302c-6.505,0-14.571-0.101-24.441-0.302	c-6.082-0.124-8.135-2.857-8.135-10.83c0-12.698,0.222-34.086,0.354-46.866c0.057-5.519,0.098-9.469,0.098-10.482	c0-4.46,3.572-7.823,8.309-7.823h36.435c3.446,0,9.958,7.987,13.533,12.748c2.359,3.143,2.102,5.481,1.472,6.89	c-0.471,1.052-1.294,1.895-2.381,2.476C77.077,32.469,78,33.626,78,35c0,12.565,0.021,22.561,0.038,30.021	c0.009,4.445,0.017,7.991,0.017,10.645c0,7.151-1.903,9.312-8.854,10.054C65.552,86.109,59.55,86.302,50.574,86.302z M24.549,79.856	c0.348,0.118,1.36,0.138,1.705,0.145c23.229,0.474,36.278,0.396,42.31-0.248c2.484-0.265,3.063-0.549,3.197-0.659	c0.094-0.154,0.293-0.846,0.293-3.429c0-2.65-0.008-6.192-0.017-10.632C72.021,57.57,72,47.571,72,35	c0-0.782,0.299-1.494,0.789-2.027c-0.023,0.002-0.047,0.004-0.071,0.006c-2.278,0.194-4.747,0.121-6.729,0.063	C65.233,33.02,64.555,33,64,33c-2.084,0-5.601-0.921-5.743-7.093l-0.032-1.437c-0.047-2.226-0.092-4.328-0.219-6.274	c-0.055-0.836,0.24-1.616,0.758-2.195H26.759c-0.857,0-2.309,0.384-2.309,1.823c0,1.019-0.041,4.992-0.099,10.544	c-0.132,12.768-0.354,34.137-0.354,46.804C23.998,78.666,24.421,79.642,24.549,79.856z M64.358,27	c0.557,0.008,1.156,0.025,1.807,0.044c1.83,0.054,4.107,0.122,6.044-0.044c0.052-0.004,0.102-0.01,0.148-0.015	c-0.102-0.174-0.24-0.385-0.428-0.636c-1.849-2.463-5.765-7.097-8.091-9.327c0.084,0.247,0.139,0.509,0.156,0.782	c0.135,2.077,0.182,4.243,0.23,6.537l0.031,1.426C64.269,26.364,64.313,26.753,64.358,27z" opacity=".3"/><path fill="#0fd2ff" d="M50.595,85.303c-6.497,0-14.563-0.101-24.442-0.302c-4.848-0.099-7.155-1.595-7.155-9.83	c0-12.693,0.222-34.078,0.354-46.855c0.057-5.524,0.098-9.478,0.098-10.492c0-3.89,3.142-6.823,7.309-6.823h36.435	c3.294,0,11.185,10.286,12.733,12.348c1.659,2.21,2.116,4.188,1.358,5.88c-0.708,1.581-2.36,2.559-4.652,2.754	c-2.223,0.189-4.658,0.118-6.616,0.06C65.251,32.02,64.563,32,64,32c-3.054,0-4.65-2.058-4.744-6.116l-0.031-1.435	c-0.048-2.237-0.093-4.35-0.221-6.318c-0.072-1.102,0.763-2.054,1.866-2.125c1.101-0.069,2.054,0.764,2.125,1.866	c0.134,2.055,0.18,4.211,0.229,6.493l0.031,1.428c0.043,1.866,0.385,2.155,0.388,2.158c0,0,0.087,0.051,0.356,0.051	c0.596,0,1.325,0.021,2.135,0.045c1.855,0.054,4.165,0.122,6.158-0.047c0.925-0.079,1.299-0.348,1.349-0.416	c0.019-0.104-0.082-0.724-0.914-1.832c-2.113-2.814-8.021-9.8-9.784-10.75H26.759c-1.594,0-3.309,0.883-3.309,2.823	c0,1.018-0.041,4.987-0.099,10.534c-0.132,12.77-0.354,34.142-0.354,46.814c0,5.765,0.558,5.776,3.236,5.831	c23.275,0.474,36.361,0.396,42.437-0.253c4.384-0.468,4.384-0.468,4.384-5.082c0-2.651-0.008-6.193-0.017-10.634	C73.021,57.569,73,47.57,73,35c0-1.104,0.896-2,2-2s2,0.896,2,2c0,12.566,0.021,22.563,0.038,30.023	c0.009,4.444,0.017,7.989,0.017,10.643c0,6.675-1.488,8.369-7.959,9.06C65.478,85.112,59.518,85.303,50.595,85.303z" opacity=".3"/><path fill="#0fd2ff" d="M50.617,84.303c-6.489,0-14.556-0.101-24.444-0.302c-4.198-0.086-6.175-0.985-6.175-8.83	c0-12.688,0.222-34.07,0.354-46.845c0.058-5.53,0.099-9.488,0.099-10.503c0-3.32,2.712-5.823,6.309-5.823h36.435	c2.834,0,11.844,11.829,11.934,11.948c1.424,1.898,1.843,3.537,1.245,4.872c-0.552,1.234-1.911,2.003-3.825,2.167	c-2.167,0.184-4.571,0.113-6.501,0.057C65.27,31.021,64.571,31,64,31c-3.625,0-3.711-3.734-3.744-5.14l-0.032-1.433	c-0.048-2.248-0.093-4.372-0.223-6.362c-0.036-0.551,0.382-1.027,0.933-1.063c0.545-0.046,1.026,0.381,1.063,0.933	c0.132,2.034,0.178,4.179,0.226,6.449l0.031,1.43C62.324,28.76,63.086,29,64,29c0.587,0,1.307,0.021,2.105,0.044	c1.882,0.056,4.223,0.124,6.273-0.051c1.124-0.096,1.935-0.466,2.169-0.991c0.267-0.595-0.105-1.635-1.02-2.854	c-2.438-3.248-8.891-10.829-10.385-11.153L26.759,14c-2.141,0-4.309,1.313-4.309,3.823c0,1.017-0.041,4.982-0.099,10.523	c-0.132,12.771-0.354,34.147-0.354,46.824c0,6.744,1.234,6.77,4.216,6.83c23.317,0.474,36.443,0.395,42.563-0.258	c4.883-0.521,5.278-0.976,5.278-6.077c0-2.652-0.008-6.195-0.017-10.636C74.021,57.567,74,47.569,74,35c0-0.552,0.448-1,1-1	s1,0.448,1,1c0,12.567,0.021,22.564,0.038,30.025c0.009,4.443,0.017,7.988,0.017,10.641c0,6.149-1.123,7.431-7.066,8.065	C65.404,84.114,59.486,84.303,50.617,84.303z"/></svg>